<svg width="40" height="38" viewBox="0 0 40 38" fill="none" xmlns="http://www.w3.org/2000/svg">
<path d="M37.9845 0.400408H24.69C21.4538 0.396602 18.251 1.03597 15.2787 2.27903C12.3064 3.52208 9.62756 5.34262 7.40691 7.62858C7.34976 7.68799 7.31171 7.76227 7.29751 7.84239C7.2833 7.9225 7.29357 8.00481 7.32697 8.07935C7.36037 8.1539 7.4155 8.21743 7.48554 8.26195C7.55559 8.30647 7.63748 8.33019 7.72119 8.33008H13.9097C13.997 8.33017 14.0807 8.3638 14.1424 8.42373C14.2041 8.48365 14.2388 8.56487 14.2389 8.64962V20.7296C14.2389 20.8144 14.2736 20.8955 14.3353 20.9555C14.3971 21.0154 14.4807 21.0491 14.568 21.0491H20.1382C20.1815 21.0491 20.2242 21.0572 20.2642 21.0733C20.3042 21.0893 20.3405 21.1131 20.3711 21.1428C20.4017 21.1725 20.4259 21.2077 20.4424 21.2465C20.4589 21.2853 20.4674 21.3267 20.4674 21.3687V27.3254C20.4674 27.3674 20.4589 27.4091 20.4424 27.4479C20.4259 27.4867 20.4017 27.5219 20.3711 27.5516C20.3405 27.5813 20.3042 27.6047 20.2642 27.6208C20.2242 27.6368 20.1815 27.6453 20.1382 27.6453H14.4211C14.3339 27.6454 14.2502 27.679 14.1885 27.7389C14.1268 27.7988 14.0921 27.8801 14.092 27.9648V30.2657C14.092 30.3077 14.0835 30.349 14.067 30.3878C14.0505 30.4266 14.0263 30.4619 13.9957 30.4916C13.9651 30.5212 13.9288 30.545 13.8888 30.561C13.8489 30.5771 13.8061 30.5852 13.7628 30.5852H10.8848C10.8416 30.5852 10.7988 30.5771 10.7588 30.561C10.7189 30.545 10.6825 30.5212 10.6519 30.4916C10.6214 30.4619 10.5972 30.4266 10.5806 30.3878C10.5641 30.349 10.5556 30.3077 10.5557 30.2657V27.4701C10.5557 27.4281 10.5642 27.3866 10.5807 27.3479C10.5973 27.3091 10.6215 27.2738 10.6521 27.2442C10.6827 27.2145 10.719 27.191 10.7589 27.175C10.7988 27.159 10.8416 27.1508 10.8848 27.1509H13.3459C13.4332 27.1508 13.5168 27.1171 13.5785 27.0572C13.6402 26.9973 13.6749 26.9161 13.675 26.8313V21.8412C13.675 21.7565 13.6403 21.6753 13.5786 21.6154C13.5169 21.5554 13.4332 21.5217 13.3459 21.5217H1.66823C1.48219 21.5218 1.30325 21.5909 1.16807 21.715C1.03288 21.8392 0.951716 22.0089 0.94123 22.1893C0.915746 22.6226 0.902816 23.0591 0.902344 23.499V36.409C0.902344 36.7247 1.03145 37.0272 1.26131 37.2505C1.49117 37.4738 1.80292 37.5995 2.12804 37.5996H15.4215C18.5453 37.5996 21.6385 37.0019 24.5246 35.8411C27.4107 34.6803 30.033 32.9788 32.2419 30.8339C34.4508 28.689 36.2029 26.1427 37.3984 23.3402C38.5938 20.5378 39.2091 17.534 39.2091 14.5006V1.59061C39.209 1.27515 39.08 0.972646 38.8504 0.749481C38.6208 0.526316 38.3093 0.400772 37.9845 0.400408Z" fill="#9BB30D"/>
</svg>
