<svg xmlns="http://www.w3.org/2000/svg" width="254.503" height="91.731" viewBox="0 0 254.503 91.731">
  <g id="Grupo_126" data-name="Grupo 126" transform="translate(-165.146 -304.031)">
    <path id="Caminho_91" data-name="Caminho 91" d="M10427.321,14527.462v57.53a1.331,1.331,0,0,0,1.33,1.331h9.906a1.331,1.331,0,0,0,1.328-1.267l.044-.894a1.328,1.328,0,0,1,2.146-.983c3.219,2.561,7.789,4.135,13.477,4.135,13.5,0,23.071-10.469,23.071-24.858,0-14.487-9.576-24.758-23.071-24.758-6.048,0-10.388,1.741-13.509,4.436a1.333,1.333,0,0,1-2.219-.99v-13.682a1.331,1.331,0,0,0-1.331-1.331h-9.843a1.331,1.331,0,0,0-1.33,1.331m12.653,34.944c0-7.589,5.456-13.3,12.949-13.3,7.59,0,12.9,5.606,12.9,13.3,0,7.543-5.311,13.5-12.9,13.5-7.493,0-12.949-5.952-12.949-13.5" transform="translate(-10170.136 -14222.1)" fill="#004730"/>
    <path id="Caminho_92" data-name="Caminho 92" d="M10534.8,14526.131h-9.843a1.331,1.331,0,0,0-1.331,1.331v13.682a1.333,1.333,0,0,1-2.219.99c-3.121-2.694-7.461-4.436-13.51-4.436-13.494,0-23.07,10.271-23.07,24.758,0,14.391,9.576,24.858,23.07,24.858,5.688,0,10.26-1.574,13.478-4.135a1.327,1.327,0,0,1,2.146.983l.044.894a1.331,1.331,0,0,0,1.329,1.267h9.906a1.331,1.331,0,0,0,1.33-1.331v-57.53a1.33,1.33,0,0,0-1.33-1.331m-24.272,49.771c-7.591,0-12.9-5.952-12.9-13.5,0-7.689,5.31-13.3,12.9-13.3,7.492,0,12.948,5.707,12.948,13.3,0,7.543-5.456,13.5-12.948,13.5" transform="translate(-10170.136 -14222.1)" fill="#004730"/>
    <path id="Caminho_93" data-name="Caminho 93" d="M10570.988,14595.015v2.81a.448.448,0,0,1-.448.447h-3.247a.448.448,0,0,0-.448.447v11.492a.448.448,0,0,1-.447.448h-3.112a.448.448,0,0,1-.448-.448v-15.2a.447.447,0,0,1,.448-.447h7.255a.447.447,0,0,1,.448.447" transform="translate(-10170.136 -14222.1)" fill="#a2bb0c"/>
    <path id="Caminho_94" data-name="Caminho 94" d="M10573.19,14602.66a8.3,8.3,0,1,1,8.281,8.222,7.962,7.962,0,0,1-8.281-8.222m12.379-.061c0-2.66-1.646-4.515-4.1-4.515-2.422,0-4.1,1.854-4.1,4.515,0,2.691,1.674,4.575,4.1,4.575,2.452,0,4.1-1.884,4.1-4.575" transform="translate(-10170.136 -14222.1)" fill="#a2bb0c"/>
    <path id="Caminho_95" data-name="Caminho 95" d="M10539.887,14594.524h-3.3a.447.447,0,0,0-.448.447v1.637a6.33,6.33,0,0,0-5.278-2.267c-4.53,0-7.744,3.448-7.744,8.312,0,4.83,3.214,8.344,7.744,8.344a7.16,7.16,0,0,0,4.521-1.387.447.447,0,0,1,.723.331l.015.3a.448.448,0,0,0,.447.426h3.322a.448.448,0,0,0,.448-.448v-15.244a.447.447,0,0,0-.448-.447m-8.146,12.642a4.318,4.318,0,0,1-4.33-4.53,4.234,4.234,0,0,1,4.33-4.463,4.286,4.286,0,0,1,4.347,4.463,4.351,4.351,0,0,1-4.347,4.53" transform="translate(-10170.136 -14222.1)" fill="#a2bb0c"/>
    <path id="Caminho_96" data-name="Caminho 96" d="M10559.748,14614.691v-19.709a.448.448,0,0,0-.448-.448h-3.3a.447.447,0,0,0-.447.448v1.626a6.332,6.332,0,0,0-5.279-2.267c-4.529,0-7.743,3.448-7.743,8.312,0,4.83,3.214,8.344,7.743,8.344a7.268,7.268,0,0,0,4.378-1.276.54.54,0,0,1,.428-.1.438.438,0,0,1,.343.438c-.007,1.808-.013,2.988-.013,2.988a.552.552,0,0,1-.552.552h-5.18a.447.447,0,0,0-.447.447l0,3.366a.447.447,0,0,0,.447.448h6.608c2.217,0,3.467-1.084,3.467-3.171m-4.293-11.376v-1.36a5.063,5.063,0,0,1,0,1.36m-4.3,3.851a4.318,4.318,0,0,1-4.33-4.53,4.334,4.334,0,0,1,8.624-.731.407.407,0,0,1,0,.069c0,.338,0,.8,0,1.356l-.006.072a4.3,4.3,0,0,1-4.288,3.764" transform="translate(-10170.136 -14222.1)" fill="#a2bb0c"/>
    <path id="Caminho_97" data-name="Caminho 97" d="M10405.612,14572.984v-23.955a.665.665,0,0,1,.665-.665h12.153a1.331,1.331,0,0,0,1.331-1.331v-7.46a1.33,1.33,0,0,0-1.329-1.331l-12.077-.02a.665.665,0,0,1-.665-.665l0-6.413a4.993,4.993,0,0,0-4.994-4.989l-6.555,0a1.333,1.333,0,0,0-1.331,1.328l-.13,49.411c0,6.219,3.726,9.448,10.33,9.448h15.421a1.33,1.33,0,0,0,1.331-1.332l-.009-10.034a1.332,1.332,0,0,0-1.331-1.329h-12.144a.665.665,0,0,1-.665-.665" transform="translate(-10170.136 -14222.1)" fill="#004730"/>
    <path id="Caminho_98" data-name="Caminho 98" d="M10581.85,14570.042a1.325,1.325,0,0,0-1.8.267,13.093,13.093,0,0,1-10.841,5.436c-7.274,0-12.715-5.74-12.715-13.113,0-7.522,5.292-13.358,12.914-13.358a13.234,13.234,0,0,1,10.072,4.779,1.342,1.342,0,0,0,1.746.275l7.557-4.841a1.328,1.328,0,0,0,.372-1.887,24.45,24.45,0,0,0-19.946-10c-14.1,0-25.334,10.884-25.334,24.787a25.107,25.107,0,0,0,45.443,14.453,1.329,1.329,0,0,0-.343-1.843Z" transform="translate(-10170.136 -14222.1)" fill="#004730"/>
    <path id="Caminho_99" data-name="Caminho 99" d="M10382.625,14538.045h-16.973a30.287,30.287,0,0,0-22.066,9.5.548.548,0,0,0,.4.922h7.9a.42.42,0,0,1,.42.42v15.884a.421.421,0,0,0,.421.42h7.111a.419.419,0,0,1,.421.42v7.832a.42.42,0,0,1-.421.42h-7.3a.419.419,0,0,0-.42.42v3.025a.421.421,0,0,1-.42.421h-3.675a.42.42,0,0,1-.42-.421v-3.675a.421.421,0,0,1,.42-.421h3.142a.419.419,0,0,0,.42-.42v-6.56a.419.419,0,0,0-.42-.42h-14.909a.929.929,0,0,0-.928.877q-.05.854-.05,1.723v16.973a1.565,1.565,0,0,0,1.565,1.565h16.974a30.37,30.37,0,0,0,30.37-30.37v-16.973A1.565,1.565,0,0,0,10382.625,14538.045Z" transform="translate(-10170.136 -14222.1)" fill="#9bb30d"/>
  </g>
</svg>
